<svg width="949" height="97" viewBox="0 0 949 97" fill="none" xmlns="http://www.w3.org/2000/svg">
<path d="M0.454545 22.2727V1.90909H81.3636V22.2727H53.3636V95H28.4545V22.2727H0.454545ZM118.708 1.90909V95H93.435V1.90909H118.708ZM213.79 1.90909V95H192.7L159.063 46.0909H158.518V95H133.245V1.90909H154.7L187.79 50.6364H188.518V1.90909H213.79ZM288.76 32.6364C288.366 31.0303 287.744 29.6212 286.896 28.4091C286.047 27.1667 284.987 26.1212 283.714 25.2727C282.472 24.3939 281.017 23.7424 279.35 23.3182C277.714 22.8636 275.911 22.6364 273.941 22.6364C269.699 22.6364 266.078 23.6515 263.078 25.6818C260.108 27.7121 257.835 30.6364 256.26 34.4545C254.714 38.2727 253.941 42.8788 253.941 48.2727C253.941 53.7273 254.684 58.3939 256.169 62.2727C257.653 66.1515 259.866 69.1212 262.805 71.1818C265.744 73.2424 269.396 74.2727 273.76 74.2727C277.608 74.2727 280.805 73.7121 283.35 72.5909C285.926 71.4697 287.85 69.8788 289.123 67.8182C290.396 65.7576 291.032 63.3333 291.032 60.5455L295.396 61H274.123V43H315.396V55.9091C315.396 64.3939 313.593 71.6515 309.987 77.6818C306.411 83.6818 301.472 88.2879 295.169 91.5C288.896 94.6818 281.699 96.2727 273.578 96.2727C264.517 96.2727 256.563 94.3485 249.714 90.5C242.866 86.6515 237.517 81.1667 233.669 74.0455C229.85 66.9242 227.941 58.4545 227.941 48.6364C227.941 40.9394 229.108 34.1212 231.441 28.1818C233.805 22.2424 237.078 17.2273 241.26 13.1364C245.441 9.01515 250.275 5.90909 255.76 3.81818C261.244 1.69697 267.123 0.63636 273.396 0.63636C278.911 0.63636 284.032 1.42424 288.76 3C293.517 4.54545 297.714 6.75757 301.35 9.63636C305.017 12.4848 307.972 15.8636 310.214 19.7727C312.457 23.6818 313.82 27.9697 314.305 32.6364H288.76ZM329.74 95V1.90909H396.831V22.2727H355.013V38.2727H393.376V58.6364H355.013V74.6364H396.649V95H329.74ZM435.561 95L408.107 1.90909H436.289L449.016 59.1818H449.743L464.834 1.90909H487.016L502.107 59.3636H502.834L515.561 1.90909H543.743L516.289 95H492.107L476.289 43H475.561L459.743 95H435.561ZM638.792 48.4545C638.792 58.8182 636.777 67.5606 632.746 74.6818C628.716 81.7727 623.277 87.1515 616.428 90.8182C609.58 94.4545 601.943 96.2727 593.519 96.2727C585.034 96.2727 577.368 94.4394 570.519 90.7727C563.701 87.0758 558.277 81.6818 554.246 74.5909C550.246 67.4697 548.246 58.7576 548.246 48.4545C548.246 38.0909 550.246 29.3636 554.246 22.2727C558.277 15.1515 563.701 9.77272 570.519 6.13636C577.368 2.46969 585.034 0.63636 593.519 0.63636C601.943 0.63636 609.58 2.46969 616.428 6.13636C623.277 9.77272 628.716 15.1515 632.746 22.2727C636.777 29.3636 638.792 38.0909 638.792 48.4545ZM612.792 48.4545C612.792 42.8788 612.049 38.1818 610.565 34.3636C609.11 30.5151 606.943 27.6061 604.065 25.6364C601.216 23.6364 597.701 22.6364 593.519 22.6364C589.337 22.6364 585.807 23.6364 582.928 25.6364C580.08 27.6061 577.913 30.5151 576.428 34.3636C574.974 38.1818 574.246 42.8788 574.246 48.4545C574.246 54.0303 574.974 58.7424 576.428 62.5909C577.913 66.4091 580.08 69.3182 582.928 71.3182C585.807 73.2879 589.337 74.2727 593.519 74.2727C597.701 74.2727 601.216 73.2879 604.065 71.3182C606.943 69.3182 609.11 66.4091 610.565 62.5909C612.049 58.7424 612.792 54.0303 612.792 48.4545ZM653.045 95V1.90909H693.227C700.136 1.90909 706.181 3.16666 711.363 5.68182C716.545 8.19697 720.575 11.8182 723.454 16.5455C726.333 21.2727 727.772 26.9394 727.772 33.5455C727.772 40.2121 726.287 45.8333 723.318 50.4091C720.378 54.9848 716.242 58.4394 710.909 60.7727C705.606 63.1061 699.409 64.2727 692.318 64.2727H668.318V44.6364H687.227C690.196 44.6364 692.727 44.2727 694.818 43.5455C696.939 42.7879 698.56 41.5909 699.681 39.9545C700.833 38.3182 701.409 36.1818 701.409 33.5455C701.409 30.8788 700.833 28.7121 699.681 27.0455C698.56 25.3485 696.939 24.1061 694.818 23.3182C692.727 22.5 690.196 22.0909 687.227 22.0909H678.318V95H653.045ZM707.59 52.2727L730.863 95H703.409L680.681 52.2727H707.59ZM741.105 95V1.90909H766.378V39.5455H767.65L795.65 1.90909H825.105L793.65 43.3636L825.832 95H795.65L774.741 60.0909L766.378 71V95H741.105ZM884.097 31C883.854 27.9697 882.718 25.6061 880.688 23.9091C878.688 22.2121 875.642 21.3636 871.551 21.3636C868.945 21.3636 866.809 21.6818 865.142 22.3182C863.506 22.9242 862.294 23.7576 861.506 24.8182C860.718 25.8788 860.309 27.0909 860.279 28.4545C860.218 29.5758 860.415 30.5909 860.87 31.5C861.354 32.3788 862.112 33.1818 863.142 33.9091C864.173 34.6061 865.491 35.2424 867.097 35.8182C868.703 36.3939 870.612 36.9091 872.824 37.3636L880.46 39C885.612 40.0909 890.021 41.5303 893.688 43.3182C897.354 45.1061 900.354 47.2121 902.688 49.6364C905.021 52.0303 906.733 54.7273 907.824 57.7273C908.945 60.7273 909.521 64 909.551 67.5455C909.521 73.6667 907.991 78.8485 904.96 83.0909C901.93 87.3333 897.597 90.5606 891.96 92.7727C886.354 94.9848 879.612 96.0909 871.733 96.0909C863.642 96.0909 856.582 94.8939 850.551 92.5C844.551 90.1061 839.885 86.4242 836.551 81.4545C833.248 76.4545 831.582 70.0606 831.551 62.2727H855.551C855.703 65.1212 856.415 67.5152 857.688 69.4545C858.96 71.3939 860.748 72.8636 863.051 73.8636C865.385 74.8636 868.157 75.3636 871.37 75.3636C874.066 75.3636 876.324 75.0303 878.142 74.3636C879.96 73.697 881.339 72.7727 882.279 71.5909C883.218 70.4091 883.703 69.0606 883.733 67.5455C883.703 66.1212 883.233 64.8788 882.324 63.8182C881.445 62.7273 879.991 61.7576 877.96 60.9091C875.93 60.0303 873.188 59.2121 869.733 58.4545L860.46 56.4545C852.218 54.6667 845.718 51.6818 840.96 47.5C836.233 43.2879 833.885 37.5455 833.915 30.2727C833.885 24.3636 835.46 19.197 838.642 14.7727C841.854 10.3182 846.294 6.84848 851.96 4.36363C857.657 1.87878 864.188 0.63636 871.551 0.63636C879.066 0.63636 885.566 1.89394 891.051 4.40909C896.536 6.92424 900.763 10.4697 903.733 15.0455C906.733 19.5909 908.248 24.9091 908.279 31H884.097ZM935.725 96.4545C932.21 96.4545 929.195 95.2273 926.68 92.7727C924.195 90.2879 922.967 87.2727 922.998 83.7273C922.967 80.2727 924.195 77.3182 926.68 74.8636C929.195 72.4091 932.21 71.1818 935.725 71.1818C939.058 71.1818 941.998 72.4091 944.543 74.8636C947.119 77.3182 948.422 80.2727 948.452 83.7273C948.422 86.0909 947.801 88.2424 946.589 90.1818C945.407 92.0909 943.861 93.6212 941.952 94.7727C940.043 95.8939 937.967 96.4545 935.725 96.4545Z" fill="black"/>
</svg>
