<svg width="56" height="24" viewBox="0 0 56 24" fill="none" xmlns="http://www.w3.org/2000/svg">
<path d="M19.392 0.344V5.976H13.376V23H6.272V5.976H0.32V0.344H19.392ZM49.4788 0.344L44.2948 23H35.4628L32.8388 10.136L30.2148 23H21.3828L16.1988 0.344H23.8468L25.8948 14.616L28.9668 0.344H36.7108L39.7828 14.616L41.8308 0.344H49.4788ZM51.0663 23.256C49.8289 23.256 48.8369 22.9253 48.0903 22.264C47.3436 21.6027 46.9703 20.7707 46.9703 19.768C46.9703 18.744 47.3436 17.9013 48.0903 17.24C48.8369 16.5573 49.8289 16.216 51.0663 16.216C52.2823 16.216 53.2636 16.5573 54.0103 17.24C54.7569 17.9013 55.1303 18.744 55.1303 19.768C55.1303 20.7707 54.7569 21.6027 54.0103 22.264C53.2636 22.9253 52.2823 23.256 51.0663 23.256Z" fill="black"/>
</svg>
